<svg width="63" height="66" viewBox="0 0 63 66" fill="none" xmlns="http://www.w3.org/2000/svg">
<line x1="2" y1="1" x2="2" y2="66" stroke="black" stroke-width="4"/>
<line x1="61" y1="1" x2="61" y2="66" stroke="black" stroke-width="4"/>
<line x1="-1.74846e-07" y1="2.9091" x2="63" y2="2.90909" stroke="black" stroke-width="4"/>
<line x1="-1.74846e-07" y1="64" x2="63" y2="64" stroke="black" stroke-width="4"/>
<path d="M6.79759 48V19.6364H17.4339C19.6129 19.6364 21.4411 20.0149 22.9183 20.772C24.4048 21.5291 25.5266 22.5909 26.2837 23.9574C27.0501 25.3146 27.4332 26.8981 27.4332 28.7077C27.4332 30.5266 27.0455 32.1055 26.2699 33.4442C25.5036 34.7738 24.3725 35.8033 22.8768 36.5327C21.381 37.2528 19.5437 37.6129 17.3647 37.6129H9.78906V33.3473H16.6722C17.9464 33.3473 18.9897 33.1719 19.8022 32.821C20.6147 32.4609 21.2148 31.9393 21.6026 31.256C21.9996 30.5636 22.1982 29.7141 22.1982 28.7077C22.1982 27.7013 21.9996 26.8427 21.6026 26.1317C21.2056 25.4116 20.6009 24.8668 19.7884 24.4975C18.9759 24.119 17.9279 23.9297 16.6445 23.9297H11.9357V48H6.79759ZM21.4503 35.1477L28.4719 48H22.7383L15.8413 35.1477H21.4503ZM32.1628 48V19.6364H37.301V31.6438H50.4441V19.6364H55.5961V48H50.4441V35.951H37.301V48H32.1628Z" fill="black"/>
</svg>
